<svg width="89" height="24" viewBox="0 0 89 24" fill="none" xmlns="http://www.w3.org/2000/svg">
<path d="M16 8H8M16 8C18.2091 8 20 9.79086 20 12V18C20 20.2091 18.2091 22 16 22H8C5.79086 22 4 20.2091 4 18V12C4 9.79086 5.79086 8 8 8M16 8V6C16 3.79086 14.2091 2 12 2C9.79086 2 8 3.79086 8 6V8M14 15C14 16.1046 13.1046 17 12 17C10.8954 17 10 16.1046 10 15C10 13.8954 10.8954 13 12 13C13.1046 13 14 13.8954 14 15Z" stroke="#16151C" stroke-width="1.5" stroke-linecap="round" stroke-linejoin="round"/>
<path d="M44.6591 10H43.5909C43.5114 9.60227 43.3674 9.23485 43.1591 8.89773C42.9545 8.55682 42.697 8.25947 42.3864 8.00568C42.0758 7.75189 41.7235 7.55492 41.3295 7.41477C40.9356 7.27462 40.5095 7.20455 40.0511 7.20455C39.3163 7.20455 38.6458 7.39583 38.0398 7.77841C37.4375 8.16098 36.9545 8.72348 36.5909 9.46591C36.2311 10.2045 36.0511 11.1098 36.0511 12.1818C36.0511 13.2614 36.2311 14.1705 36.5909 14.9091C36.9545 15.6477 37.4375 16.2083 38.0398 16.5909C38.6458 16.9697 39.3163 17.1591 40.0511 17.1591C40.5095 17.1591 40.9356 17.089 41.3295 16.9489C41.7235 16.8087 42.0758 16.6136 42.3864 16.3636C42.697 16.1098 42.9545 15.8125 43.1591 15.4716C43.3674 15.1307 43.5114 14.7614 43.5909 14.3636H44.6591C44.5644 14.8977 44.3864 15.3958 44.125 15.858C43.8674 16.3163 43.5379 16.7178 43.1364 17.0625C42.7386 17.4072 42.2803 17.6761 41.7614 17.8693C41.2424 18.0625 40.6723 18.1591 40.0511 18.1591C39.0739 18.1591 38.2064 17.9148 37.4489 17.4261C36.6913 16.9337 36.0966 16.2405 35.6648 15.3466C35.2367 14.4527 35.0227 13.3977 35.0227 12.1818C35.0227 10.9659 35.2367 9.91098 35.6648 9.01705C36.0966 8.12311 36.6913 7.43182 37.4489 6.94318C38.2064 6.45076 39.0739 6.20455 40.0511 6.20455C40.6723 6.20455 41.2424 6.30114 41.7614 6.49432C42.2803 6.68371 42.7386 6.95265 43.1364 7.30114C43.5379 7.64583 43.8674 8.04735 44.125 8.50568C44.3864 8.96402 44.5644 9.46212 44.6591 10ZM46.9446 18V9.27273H47.9276V10.6136H48.0014C48.1757 10.1742 48.4787 9.82008 48.9105 9.55114C49.3461 9.27841 49.8385 9.14205 50.3878 9.14205C50.4711 9.14205 50.5639 9.14394 50.6662 9.14773C50.7685 9.15152 50.8537 9.1553 50.9219 9.15909V10.1875C50.8764 10.1799 50.7969 10.1686 50.6832 10.1534C50.5696 10.1383 50.4465 10.1307 50.3139 10.1307C49.8594 10.1307 49.4541 10.2273 49.098 10.4205C48.7457 10.6098 48.4673 10.8731 48.2628 11.2102C48.0582 11.5473 47.956 11.9318 47.956 12.3636V18H46.9446ZM52.6591 18V9.27273H53.6761V18H52.6591ZM53.1761 7.77273C52.9678 7.77273 52.7898 7.70265 52.642 7.5625C52.4943 7.41856 52.4205 7.24621 52.4205 7.04545C52.4205 6.8447 52.4943 6.67424 52.642 6.53409C52.7898 6.39015 52.9678 6.31818 53.1761 6.31818C53.3845 6.31818 53.5625 6.39015 53.7102 6.53409C53.858 6.67424 53.9318 6.8447 53.9318 7.04545C53.9318 7.24621 53.858 7.41856 53.7102 7.5625C53.5625 7.70265 53.3845 7.77273 53.1761 7.77273ZM59.7884 9.27273V10.1534H55.6236V9.27273H59.7884ZM56.9247 7.18182H57.9418V15.7216C57.9418 16.0852 58.0043 16.3712 58.1293 16.5795C58.2543 16.7841 58.4171 16.9299 58.6179 17.017C58.8187 17.1004 59.0327 17.142 59.2599 17.142C59.3925 17.142 59.5062 17.1345 59.6009 17.1193C59.6955 17.1004 59.7789 17.0814 59.8509 17.0625L60.0668 17.9773C59.9683 18.0152 59.8471 18.0492 59.7031 18.0795C59.5592 18.1136 59.3812 18.1307 59.169 18.1307C58.7978 18.1307 58.4399 18.0492 58.0952 17.8864C57.7543 17.7235 57.474 17.4811 57.2543 17.1591C57.0346 16.8371 56.9247 16.4375 56.9247 15.9602V7.18182ZM65.5199 18.1818C64.7055 18.1818 64.0009 17.9924 63.4062 17.6136C62.8116 17.2311 62.3513 16.7027 62.0256 16.0284C61.7036 15.3504 61.5426 14.5701 61.5426 13.6875C61.5426 12.8087 61.7036 12.0284 62.0256 11.3466C62.3513 10.661 62.8002 10.125 63.3722 9.73864C63.9479 9.34848 64.6127 9.15341 65.3665 9.15341C65.84 9.15341 66.2964 9.24053 66.7358 9.41477C67.1752 9.58523 67.5691 9.84848 67.9176 10.2045C68.2699 10.5568 68.5483 11.0019 68.7528 11.5398C68.9574 12.0739 69.0597 12.7064 69.0597 13.4375V13.9375H62.2415V13.0455H68.0256C68.0256 12.4848 67.9119 11.9811 67.6847 11.5341C67.4612 11.0833 67.1487 10.7273 66.7472 10.4659C66.3494 10.2045 65.8892 10.0739 65.3665 10.0739C64.8134 10.0739 64.3267 10.2216 63.9062 10.517C63.4858 10.8125 63.1563 11.2027 62.9176 11.6875C62.6828 12.1723 62.5634 12.7027 62.5597 13.2784V13.8125C62.5597 14.5057 62.679 15.1117 62.9176 15.6307C63.16 16.1458 63.5028 16.5455 63.946 16.8295C64.3892 17.1136 64.9138 17.2557 65.5199 17.2557C65.9328 17.2557 66.2945 17.1913 66.6051 17.0625C66.9195 16.9337 67.1828 16.7614 67.3949 16.5455C67.6108 16.3258 67.7737 16.0852 67.8835 15.8239L68.8438 16.1364C68.7112 16.5038 68.4934 16.8428 68.1903 17.1534C67.8911 17.464 67.5161 17.714 67.0653 17.9034C66.6184 18.089 66.1032 18.1818 65.5199 18.1818ZM71.2884 18V9.27273H72.2713V10.6136H72.3452C72.5194 10.1742 72.8224 9.82008 73.2543 9.55114C73.6899 9.27841 74.1823 9.14205 74.7315 9.14205C74.8149 9.14205 74.9077 9.14394 75.0099 9.14773C75.1122 9.15152 75.1974 9.1553 75.2656 9.15909V10.1875C75.2202 10.1799 75.1406 10.1686 75.027 10.1534C74.9134 10.1383 74.7902 10.1307 74.6577 10.1307C74.2031 10.1307 73.7978 10.2273 73.4418 10.4205C73.0895 10.6098 72.8111 10.8731 72.6065 11.2102C72.402 11.5473 72.2997 11.9318 72.2997 12.3636V18H71.2884ZM77.0028 18V9.27273H78.0199V18H77.0028ZM77.5199 7.77273C77.3116 7.77273 77.1335 7.70265 76.9858 7.5625C76.8381 7.41856 76.7642 7.24621 76.7642 7.04545C76.7642 6.8447 76.8381 6.67424 76.9858 6.53409C77.1335 6.39015 77.3116 6.31818 77.5199 6.31818C77.7282 6.31818 77.9063 6.39015 78.054 6.53409C78.2017 6.67424 78.2756 6.8447 78.2756 7.04545C78.2756 7.24621 78.2017 7.41856 78.054 7.5625C77.9063 7.70265 77.7282 7.77273 77.5199 7.77273ZM83.1321 18.1989C82.6056 18.1989 82.1245 18.0966 81.6889 17.892C81.2533 17.6837 80.9067 17.3845 80.6491 16.9943C80.3916 16.6004 80.2628 16.1231 80.2628 15.5625C80.2628 15.1307 80.3442 14.767 80.5071 14.4716C80.67 14.1761 80.901 13.9337 81.2003 13.7443C81.4995 13.5549 81.8537 13.4053 82.2628 13.2955C82.6719 13.1856 83.1226 13.1004 83.6151 13.0398C84.1037 12.9792 84.5166 12.9261 84.8537 12.8807C85.1946 12.8352 85.4541 12.7633 85.6321 12.6648C85.8101 12.5663 85.8991 12.4072 85.8991 12.1875V11.983C85.8991 11.3883 85.7211 10.9205 85.3651 10.5795C85.0128 10.2348 84.5052 10.0625 83.8423 10.0625C83.2135 10.0625 82.7003 10.2008 82.3026 10.4773C81.9086 10.7538 81.6321 11.0795 81.473 11.4545L80.5128 11.108C80.7098 10.6307 80.9825 10.25 81.331 9.96591C81.6795 9.67803 82.0696 9.47159 82.5014 9.34659C82.9332 9.2178 83.3707 9.15341 83.8139 9.15341C84.1473 9.15341 84.4938 9.19697 84.8537 9.28409C85.2173 9.37121 85.5545 9.52273 85.8651 9.73864C86.1757 9.95076 86.4276 10.2481 86.6207 10.6307C86.8139 11.0095 86.9105 11.4905 86.9105 12.0739V18H85.8991V16.6193H85.8366C85.7154 16.8769 85.5355 17.1269 85.2969 17.3693C85.0582 17.6117 84.759 17.8106 84.3991 17.9659C84.0393 18.1212 83.617 18.1989 83.1321 18.1989ZM83.2685 17.2727C83.8063 17.2727 84.2723 17.1534 84.6662 16.9148C85.0601 16.6761 85.3632 16.3598 85.5753 15.9659C85.7912 15.5682 85.8991 15.1307 85.8991 14.6534V13.392C85.8234 13.464 85.6965 13.5284 85.5185 13.5852C85.3442 13.642 85.1416 13.6932 84.9105 13.7386C84.6832 13.7803 84.456 13.8163 84.2287 13.8466C84.0014 13.8769 83.7969 13.9034 83.6151 13.9261C83.1226 13.9867 82.7022 14.0814 82.3537 14.2102C82.0052 14.339 81.7382 14.517 81.5526 14.7443C81.367 14.9678 81.2741 15.2557 81.2741 15.608C81.2741 16.1383 81.4635 16.5492 81.8423 16.8409C82.2211 17.1288 82.6965 17.2727 83.2685 17.2727Z" fill="#16151C"/>
</svg>
