<svg width="92" height="24" viewBox="0 0 92 24" fill="none" xmlns="http://www.w3.org/2000/svg">
<path fill-rule="evenodd" clip-rule="evenodd" d="M6.25 7C6.25 3.82436 8.82436 1.25 12 1.25C15.1756 1.25 17.75 3.82436 17.75 7V8.11372C17.75 8.18052 17.7413 8.24529 17.7249 8.30693C19.161 8.83463 20.2803 9.99318 20.7553 11.4549C21 12.2081 21 13.1387 21 15C21 16.8613 21 17.7919 20.7553 18.5451C20.2607 20.0673 19.0673 21.2607 17.5451 21.7553C16.7919 22 15.8613 22 14 22H9.99998C8.13871 22 7.20808 22 6.45492 21.7553C4.93273 21.2607 3.73931 20.0673 3.24472 18.5451C3 17.7919 3 16.8613 3 15C3 13.1387 3 12.2081 3.24472 11.4549C3.71966 9.99318 4.83903 8.83463 6.27512 8.30693C6.25873 8.24529 6.25 8.18052 6.25 8.11372V7ZM7.75 8.03413C8.31973 8 9.03471 8 10 8H14C14.9653 8 15.6803 8 16.25 8.03413V7C16.25 4.65279 14.3472 2.75 12 2.75C9.65279 2.75 7.75 4.65279 7.75 7V8.03413ZM12 12.25C12.4142 12.25 12.75 12.5858 12.75 13V17C12.75 17.4142 12.4142 17.75 12 17.75C11.5858 17.75 11.25 17.4142 11.25 17V13C11.25 12.5858 11.5858 12.25 12 12.25Z" fill="#006666"/>
<path d="M45.108 10.2898H42.983C42.9223 9.94129 42.8106 9.63258 42.6477 9.36364C42.4848 9.09091 42.2822 8.85985 42.0398 8.67045C41.7973 8.48106 41.5208 8.33901 41.2102 8.24432C40.9034 8.14583 40.572 8.09659 40.2159 8.09659C39.5833 8.09659 39.0227 8.25568 38.5341 8.57386C38.0455 8.88826 37.6629 9.35038 37.3864 9.96023C37.1098 10.5663 36.9716 11.3068 36.9716 12.1818C36.9716 13.072 37.1098 13.822 37.3864 14.4318C37.6667 15.0379 38.0492 15.4962 38.5341 15.8068C39.0227 16.1136 39.5814 16.267 40.2102 16.267C40.5587 16.267 40.8845 16.2216 41.1875 16.1307C41.4943 16.036 41.7689 15.8977 42.0114 15.7159C42.2576 15.5341 42.464 15.3106 42.6307 15.0455C42.8011 14.7803 42.9186 14.4773 42.983 14.1364L45.108 14.1477C45.0284 14.7008 44.8561 15.2197 44.5909 15.7045C44.3295 16.1894 43.9867 16.6174 43.5625 16.9886C43.1383 17.3561 42.642 17.6439 42.0739 17.8523C41.5057 18.0568 40.875 18.1591 40.1818 18.1591C39.1591 18.1591 38.2462 17.9223 37.4432 17.4489C36.6402 16.9754 36.0076 16.2917 35.5455 15.3977C35.0833 14.5038 34.8523 13.4318 34.8523 12.1818C34.8523 10.928 35.0852 9.85606 35.5511 8.96591C36.017 8.07197 36.6515 7.38826 37.4545 6.91477C38.2576 6.44129 39.1667 6.20455 40.1818 6.20455C40.8295 6.20455 41.4318 6.29545 41.9886 6.47727C42.5455 6.65909 43.0417 6.92614 43.4773 7.27841C43.9129 7.62689 44.2708 8.05492 44.5511 8.5625C44.8352 9.06629 45.0208 9.64205 45.108 10.2898ZM46.9474 18V9.27273H48.9418V10.7273H49.0327C49.1918 10.2235 49.4645 9.83523 49.8509 9.5625C50.241 9.28598 50.6861 9.14773 51.1861 9.14773C51.2997 9.14773 51.4266 9.15341 51.5668 9.16477C51.7107 9.17235 51.83 9.18561 51.9247 9.20455V11.0966C51.8376 11.0663 51.6993 11.0398 51.5099 11.017C51.3243 10.9905 51.1444 10.9773 50.9702 10.9773C50.5952 10.9773 50.258 11.0587 49.9588 11.2216C49.6634 11.3807 49.4304 11.6023 49.2599 11.8864C49.0895 12.1705 49.0043 12.4981 49.0043 12.8693V18H46.9474ZM53.2912 18V9.27273H55.348V18H53.2912ZM54.3253 8.03409C53.9995 8.03409 53.7192 7.92614 53.4844 7.71023C53.2495 7.49053 53.1321 7.22727 53.1321 6.92045C53.1321 6.60985 53.2495 6.34659 53.4844 6.13068C53.7192 5.91098 53.9995 5.80114 54.3253 5.80114C54.6548 5.80114 54.9351 5.91098 55.1662 6.13068C55.401 6.34659 55.5185 6.60985 55.5185 6.92045C55.5185 7.22727 55.401 7.49053 55.1662 7.71023C54.9351 7.92614 54.6548 8.03409 54.3253 8.03409ZM61.821 9.27273V10.8636H56.804V9.27273H61.821ZM58.0426 7.18182H60.0994V15.375C60.0994 15.6515 60.1411 15.8636 60.2244 16.0114C60.3116 16.1553 60.4252 16.2538 60.5653 16.3068C60.7055 16.3598 60.8608 16.3864 61.0312 16.3864C61.16 16.3864 61.2775 16.3769 61.3835 16.358C61.4934 16.339 61.5767 16.322 61.6335 16.3068L61.9801 17.9148C61.8703 17.9527 61.7131 17.9943 61.5085 18.0398C61.3078 18.0852 61.0616 18.1117 60.7699 18.1193C60.2547 18.1345 59.7907 18.0568 59.3778 17.8864C58.965 17.7121 58.6373 17.4432 58.3949 17.0795C58.1563 16.7159 58.0388 16.2614 58.0426 15.7159V7.18182ZM67.3111 18.1705C66.4361 18.1705 65.6804 17.9886 65.044 17.625C64.4115 17.2576 63.9247 16.7386 63.5838 16.0682C63.2429 15.3939 63.0724 14.6004 63.0724 13.6875C63.0724 12.7898 63.2429 12.0019 63.5838 11.3239C63.9285 10.642 64.4096 10.1117 65.027 9.73295C65.6444 9.35038 66.3698 9.15909 67.2031 9.15909C67.741 9.15909 68.2486 9.24621 68.7259 9.42045C69.2069 9.59091 69.6312 9.85606 69.9986 10.2159C70.3698 10.5758 70.6615 11.0341 70.8736 11.5909C71.0857 12.1439 71.1918 12.803 71.1918 13.5682V14.1989H64.0384V12.8125H69.2202C69.2164 12.4186 69.1312 12.0682 68.9645 11.7614C68.7978 11.4508 68.5649 11.2064 68.2656 11.0284C67.9702 10.8504 67.6255 10.7614 67.2315 10.7614C66.8111 10.7614 66.4418 10.8636 66.1236 11.0682C65.8054 11.2689 65.5573 11.5341 65.3793 11.8636C65.205 12.1894 65.116 12.5473 65.1122 12.9375V14.1477C65.1122 14.6553 65.205 15.0909 65.3906 15.4545C65.5762 15.8144 65.8357 16.0909 66.169 16.2841C66.5024 16.4735 66.8925 16.5682 67.3395 16.5682C67.6387 16.5682 67.9096 16.5265 68.152 16.4432C68.3944 16.3561 68.6046 16.2292 68.7827 16.0625C68.9607 15.8958 69.0952 15.6894 69.1861 15.4432L71.1065 15.6591C70.9853 16.1667 70.7543 16.6098 70.4134 16.9886C70.0762 17.3636 69.6444 17.6553 69.1179 17.8636C68.5914 18.0682 67.9891 18.1705 67.3111 18.1705ZM72.9318 18V9.27273H74.9261V10.7273H75.017C75.1761 10.2235 75.4489 9.83523 75.8352 9.5625C76.2254 9.28598 76.6705 9.14773 77.1705 9.14773C77.2841 9.14773 77.411 9.15341 77.5511 9.16477C77.6951 9.17235 77.8144 9.18561 77.9091 9.20455V11.0966C77.822 11.0663 77.6837 11.0398 77.4943 11.017C77.3087 10.9905 77.1288 10.9773 76.9545 10.9773C76.5795 10.9773 76.2424 11.0587 75.9432 11.2216C75.6477 11.3807 75.4148 11.6023 75.2443 11.8864C75.0739 12.1705 74.9886 12.4981 74.9886 12.8693V18H72.9318ZM79.2756 18V9.27273H81.3324V18H79.2756ZM80.3097 8.03409C79.9839 8.03409 79.7036 7.92614 79.4688 7.71023C79.2339 7.49053 79.1165 7.22727 79.1165 6.92045C79.1165 6.60985 79.2339 6.34659 79.4688 6.13068C79.7036 5.91098 79.9839 5.80114 80.3097 5.80114C80.6392 5.80114 80.9195 5.91098 81.1506 6.13068C81.3854 6.34659 81.5028 6.60985 81.5028 6.92045C81.5028 7.22727 81.3854 7.49053 81.1506 7.71023C80.9195 7.92614 80.6392 8.03409 80.3097 8.03409ZM85.9588 18.1761C85.4058 18.1761 84.9077 18.0777 84.4645 17.8807C84.0251 17.6799 83.6766 17.3845 83.419 16.9943C83.1652 16.6042 83.0384 16.1231 83.0384 15.5511C83.0384 15.0587 83.1293 14.6515 83.3111 14.3295C83.4929 14.0076 83.741 13.75 84.0554 13.5568C84.3698 13.3636 84.724 13.2178 85.1179 13.1193C85.5156 13.017 85.9266 12.9432 86.3509 12.8977C86.8622 12.8447 87.277 12.7973 87.5952 12.7557C87.9134 12.7102 88.1444 12.642 88.2884 12.5511C88.4361 12.4564 88.5099 12.3106 88.5099 12.1136V12.0795C88.5099 11.6515 88.383 11.3201 88.1293 11.0852C87.8755 10.8504 87.5099 10.733 87.0327 10.733C86.5289 10.733 86.1293 10.8428 85.8338 11.0625C85.5421 11.2822 85.3452 11.5417 85.2429 11.8409L83.3224 11.5682C83.474 11.0379 83.724 10.5947 84.0724 10.2386C84.4209 9.87879 84.8471 9.60985 85.3509 9.43182C85.8546 9.25 86.4115 9.15909 87.0213 9.15909C87.4418 9.15909 87.8603 9.20833 88.277 9.30682C88.6937 9.4053 89.0743 9.56818 89.419 9.79545C89.7637 10.0189 90.0402 10.3239 90.2486 10.7102C90.4607 11.0966 90.5668 11.5795 90.5668 12.1591V18H88.5895V16.8011H88.5213C88.3963 17.0436 88.2202 17.2708 87.9929 17.483C87.7694 17.6913 87.4872 17.8598 87.1463 17.9886C86.8092 18.1136 86.4134 18.1761 85.9588 18.1761ZM86.4929 16.6648C86.9058 16.6648 87.2637 16.5833 87.5668 16.4205C87.8698 16.2538 88.1027 16.0341 88.2656 15.7614C88.4323 15.4886 88.5156 15.1913 88.5156 14.8693V13.8409C88.4512 13.8939 88.3414 13.9432 88.1861 13.9886C88.0346 14.0341 87.8641 14.0739 87.6747 14.108C87.4853 14.142 87.2978 14.1723 87.1122 14.1989C86.9266 14.2254 86.7656 14.2481 86.6293 14.267C86.3224 14.3087 86.0478 14.3769 85.8054 14.4716C85.563 14.5663 85.3717 14.6989 85.2315 14.8693C85.0914 15.036 85.0213 15.2519 85.0213 15.517C85.0213 15.8958 85.1596 16.1818 85.4361 16.375C85.7126 16.5682 86.0649 16.6648 86.4929 16.6648Z" fill="#006666"/>
</svg>
