<svg width="10" height="10" viewBox="0 0 10 10" fill="none" xmlns="http://www.w3.org/2000/svg">
<path fill-rule="evenodd" clip-rule="evenodd" d="M10 5C10 2.23858 7.76142 0 5 0C2.23858 0 0 2.23858 0 5C0 7.76142 2.23858 10 5 10C7.76142 10 10 7.76142 10 5ZM5 7.875C5.20711 7.875 5.375 7.70711 5.375 7.5V4.5C5.375 4.29289 5.20711 4.125 5 4.125C4.79289 4.125 4.625 4.29289 4.625 4.5V7.5C4.625 7.70711 4.79289 7.875 5 7.875ZM5 2.5C5.27614 2.5 5.5 2.72386 5.5 3C5.5 3.27614 5.27614 3.5 5 3.5C4.72386 3.5 4.5 3.27614 4.5 3C4.5 2.72386 4.72386 2.5 5 2.5Z" fill="#FF383C" fill-opacity="0.5"/>
</svg>
