<svg width="164" height="24" viewBox="0 0 164 24" fill="none" xmlns="http://www.w3.org/2000/svg">
<path d="M12 12.25C14.0393 12.25 15.9229 12.7209 17.3223 13.5205C18.7002 14.308 19.75 15.5103 19.75 17C19.75 18.4897 18.7002 19.692 17.3223 20.4795C15.9229 21.2791 14.0393 21.75 12 21.75C9.96067 21.75 8.0771 21.2791 6.67773 20.4795C5.29976 19.692 4.25 18.4897 4.25 17C4.25 15.5103 5.29976 14.308 6.67773 13.5205C8.0771 12.7209 9.96067 12.25 12 12.25ZM12 13.75C10.1733 13.75 8.55601 14.1752 7.42188 14.8232C6.26693 15.4834 5.75 16.2808 5.75 17C5.75 17.7192 6.26693 18.5166 7.42188 19.1768C8.55601 19.8248 10.1733 20.25 12 20.25C13.8267 20.25 15.444 19.8248 16.5781 19.1768C17.7331 18.5166 18.25 17.7192 18.25 17C18.25 16.2808 17.7331 15.4834 16.5781 14.8232C15.444 14.1752 13.8267 13.75 12 13.75ZM12 2.25C14.6234 2.25 16.75 4.37665 16.75 7C16.75 9.62335 14.6234 11.75 12 11.75C9.37665 11.75 7.25 9.62335 7.25 7C7.25 4.37665 9.37665 2.25 12 2.25ZM12 3.75C10.2051 3.75 8.75 5.20507 8.75 7C8.75 8.79493 10.2051 10.25 12 10.25C13.7949 10.25 15.25 8.79493 15.25 7C15.25 5.20507 13.7949 3.75 12 3.75Z" fill="#16151C"/>
<path d="M36.608 6.36364V18H35.5455V6.36364H36.608ZM40.5028 12.5455V18H39.4915V9.27273H40.4744V10.642H40.5653C40.7699 10.1951 41.0881 9.83712 41.5199 9.56818C41.9555 9.29545 42.4934 9.15909 43.1335 9.15909C43.7206 9.15909 44.2358 9.2822 44.679 9.52841C45.1259 9.77083 45.4725 10.1288 45.7188 10.6023C45.9688 11.0758 46.0938 11.6572 46.0938 12.3466V18H45.0824V12.4091C45.0824 11.6932 44.8816 11.1269 44.4801 10.7102C44.0824 10.2936 43.5483 10.0852 42.8778 10.0852C42.4195 10.0852 42.0123 10.1837 41.6562 10.3807C41.3002 10.5777 41.018 10.8617 40.8097 11.233C40.6051 11.6004 40.5028 12.0379 40.5028 12.5455ZM52.1946 9.27273V10.1534H48.0298V9.27273H52.1946ZM49.331 7.18182H50.348V15.7216C50.348 16.0852 50.4105 16.3712 50.5355 16.5795C50.6605 16.7841 50.8234 16.9299 51.0241 17.017C51.2249 17.1004 51.4389 17.142 51.6662 17.142C51.7988 17.142 51.9124 17.1345 52.0071 17.1193C52.1018 17.1004 52.1851 17.0814 52.2571 17.0625L52.473 17.9773C52.3745 18.0152 52.2533 18.0492 52.1094 18.0795C51.9654 18.1136 51.7874 18.1307 51.5753 18.1307C51.2041 18.1307 50.8461 18.0492 50.5014 17.8864C50.1605 17.7235 49.8802 17.4811 49.6605 17.1591C49.4408 16.8371 49.331 16.4375 49.331 15.9602V7.18182ZM57.9261 18.1818C57.1117 18.1818 56.4072 17.9924 55.8125 17.6136C55.2178 17.2311 54.7576 16.7027 54.4318 16.0284C54.1098 15.3504 53.9489 14.5701 53.9489 13.6875C53.9489 12.8087 54.1098 12.0284 54.4318 11.3466C54.7576 10.661 55.2064 10.125 55.7784 9.73864C56.3542 9.34848 57.0189 9.15341 57.7727 9.15341C58.2462 9.15341 58.7027 9.24053 59.142 9.41477C59.5814 9.58523 59.9754 9.84848 60.3239 10.2045C60.6761 10.5568 60.9545 11.0019 61.1591 11.5398C61.3636 12.0739 61.4659 12.7064 61.4659 13.4375V13.9375H54.6477V13.0455H60.4318C60.4318 12.4848 60.3182 11.9811 60.0909 11.5341C59.8674 11.0833 59.5549 10.7273 59.1534 10.4659C58.7557 10.2045 58.2955 10.0739 57.7727 10.0739C57.2197 10.0739 56.733 10.2216 56.3125 10.517C55.892 10.8125 55.5625 11.2027 55.3239 11.6875C55.089 12.1723 54.9697 12.7027 54.9659 13.2784V13.8125C54.9659 14.5057 55.0852 15.1117 55.3239 15.6307C55.5663 16.1458 55.9091 16.5455 56.3523 16.8295C56.7955 17.1136 57.3201 17.2557 57.9261 17.2557C58.339 17.2557 58.7008 17.1913 59.0114 17.0625C59.3258 16.9337 59.589 16.7614 59.8011 16.5455C60.017 16.3258 60.1799 16.0852 60.2898 15.8239L61.25 16.1364C61.1174 16.5038 60.8996 16.8428 60.5966 17.1534C60.2973 17.464 59.9223 17.714 59.4716 17.9034C59.0246 18.089 58.5095 18.1818 57.9261 18.1818ZM63.6946 18V9.27273H64.6776V10.6136H64.7514C64.9257 10.1742 65.2287 9.82008 65.6605 9.55114C66.0961 9.27841 66.5885 9.14205 67.1378 9.14205C67.2211 9.14205 67.3139 9.14394 67.4162 9.14773C67.5185 9.15152 67.6037 9.1553 67.6719 9.15909V10.1875C67.6264 10.1799 67.5469 10.1686 67.4332 10.1534C67.3196 10.1383 67.1965 10.1307 67.0639 10.1307C66.6094 10.1307 66.2041 10.2273 65.848 10.4205C65.4957 10.6098 65.2173 10.8731 65.0128 11.2102C64.8082 11.5473 64.706 11.9318 64.706 12.3636V18H63.6946ZM70.4091 12.5455V18H69.3977V9.27273H70.3807V10.642H70.4716C70.6761 10.1951 70.9943 9.83712 71.4261 9.56818C71.8617 9.29545 72.3996 9.15909 73.0398 9.15909C73.6269 9.15909 74.142 9.2822 74.5852 9.52841C75.0322 9.77083 75.3788 10.1288 75.625 10.6023C75.875 11.0758 76 11.6572 76 12.3466V18H74.9886V12.4091C74.9886 11.6932 74.7879 11.1269 74.3864 10.7102C73.9886 10.2936 73.4545 10.0852 72.7841 10.0852C72.3258 10.0852 71.9186 10.1837 71.5625 10.3807C71.2064 10.5777 70.9242 10.8617 70.7159 11.233C70.5114 11.6004 70.4091 12.0379 70.4091 12.5455ZM84.527 11.1875L83.6009 11.4489C83.5099 11.1875 83.3812 10.9508 83.2145 10.7386C83.0478 10.5265 82.83 10.358 82.5611 10.233C82.2959 10.108 81.9664 10.0455 81.5724 10.0455C80.9815 10.0455 80.4967 10.1856 80.1179 10.4659C79.7391 10.7462 79.5497 11.108 79.5497 11.5511C79.5497 11.9261 79.6785 12.2311 79.9361 12.4659C80.1974 12.697 80.599 12.8807 81.1406 13.017L82.4588 13.3409C83.1899 13.5189 83.7372 13.8011 84.1009 14.1875C84.4683 14.5739 84.652 15.0587 84.652 15.642C84.652 16.1345 84.5156 16.572 84.2429 16.9545C83.9702 17.3371 83.5895 17.6383 83.1009 17.858C82.616 18.0739 82.0535 18.1818 81.4134 18.1818C80.5611 18.1818 79.8584 17.9905 79.3054 17.608C78.7524 17.2216 78.3982 16.6648 78.2429 15.9375L79.2145 15.6989C79.3395 16.2178 79.5838 16.6098 79.9474 16.875C80.3149 17.1402 80.7978 17.2727 81.3963 17.2727C82.0668 17.2727 82.6027 17.1231 83.0043 16.8239C83.4058 16.5208 83.6065 16.142 83.6065 15.6875C83.6065 15.3352 83.4891 15.0398 83.2543 14.8011C83.0194 14.5587 82.6634 14.3807 82.1861 14.267L80.7599 13.9261C80.0024 13.7443 79.4418 13.4564 79.0781 13.0625C78.7145 12.6686 78.5327 12.1799 78.5327 11.5966C78.5327 11.1155 78.6634 10.6932 78.9247 10.3295C79.1861 9.96212 79.5459 9.67424 80.0043 9.46591C80.4626 9.25758 80.9853 9.15341 81.5724 9.15341C82.3717 9.15341 83.0099 9.33523 83.4872 9.69886C83.9683 10.0587 84.3149 10.5549 84.527 11.1875ZM87.8778 12.5455V18H86.8665V6.36364H87.8778V10.642H87.9688C88.1733 10.1913 88.4896 9.83144 88.9176 9.5625C89.3494 9.29356 89.8949 9.15909 90.554 9.15909C91.1449 9.15909 91.6638 9.2803 92.1108 9.52273C92.5578 9.76515 92.9062 10.1231 93.1562 10.5966C93.4062 11.0701 93.5312 11.6534 93.5312 12.3466V18H92.5142V12.4091C92.5142 11.6894 92.3134 11.1231 91.9119 10.7102C91.5142 10.2936 90.9763 10.0852 90.2983 10.0852C89.8324 10.0852 89.4176 10.1837 89.054 10.3807C88.6903 10.5777 88.4025 10.8617 88.1903 11.233C87.982 11.6004 87.8778 12.0379 87.8778 12.5455ZM96.206 18V9.27273H97.223V18H96.206ZM96.723 7.77273C96.5147 7.77273 96.3366 7.70265 96.1889 7.5625C96.0412 7.41856 95.9673 7.24621 95.9673 7.04545C95.9673 6.8447 96.0412 6.67424 96.1889 6.53409C96.3366 6.39015 96.5147 6.31818 96.723 6.31818C96.9313 6.31818 97.1094 6.39015 97.2571 6.53409C97.4048 6.67424 97.4787 6.8447 97.4787 7.04545C97.4787 7.24621 97.4048 7.41856 97.2571 7.5625C97.1094 7.70265 96.9313 7.77273 96.723 7.77273ZM99.8977 21.2727V9.27273H100.881V10.9375H101C101.121 10.6761 101.288 10.4091 101.5 10.1364C101.712 9.85985 101.992 9.62689 102.341 9.4375C102.693 9.24811 103.136 9.15341 103.67 9.15341C104.39 9.15341 105.019 9.3428 105.557 9.72159C106.098 10.0966 106.519 10.6231 106.818 11.3011C107.121 11.9754 107.273 12.7614 107.273 13.6591C107.273 14.5606 107.121 15.3504 106.818 16.0284C106.519 16.7064 106.098 17.2348 105.557 17.6136C105.019 17.9924 104.394 18.1818 103.682 18.1818C103.155 18.1818 102.714 18.0871 102.358 17.8977C102.006 17.7083 101.72 17.4754 101.5 17.1989C101.284 16.9186 101.117 16.6458 101 16.3807H100.909V21.2727H99.8977ZM100.898 13.642C100.898 14.3466 101.002 14.9716 101.21 15.517C101.422 16.0587 101.725 16.4848 102.119 16.7955C102.517 17.1023 102.998 17.2557 103.562 17.2557C104.142 17.2557 104.631 17.0966 105.028 16.7784C105.43 16.4564 105.735 16.0227 105.943 15.4773C106.155 14.9318 106.261 14.3201 106.261 13.642C106.261 12.9716 106.157 12.3674 105.949 11.8295C105.744 11.2917 105.441 10.8655 105.04 10.5511C104.638 10.233 104.146 10.0739 103.562 10.0739C102.994 10.0739 102.511 10.2273 102.114 10.5341C101.716 10.8371 101.413 11.2576 101.205 11.7955C101 12.3295 100.898 12.9451 100.898 13.642ZM117.611 18H114.202V6.36364H117.815C118.925 6.36364 119.874 6.5947 120.662 7.05682C121.454 7.51894 122.06 8.18182 122.48 9.04545C122.901 9.90909 123.111 10.9451 123.111 12.1534C123.111 13.3731 122.895 14.4205 122.463 15.2955C122.035 16.1667 121.41 16.8352 120.588 17.3011C119.77 17.767 118.777 18 117.611 18ZM115.264 17.0455H117.548C118.548 17.0455 119.385 16.8485 120.06 16.4545C120.734 16.0606 121.24 15.4981 121.577 14.767C121.914 14.036 122.082 13.1648 122.082 12.1534C122.079 11.1496 121.912 10.286 121.582 9.5625C121.257 8.83901 120.772 8.28409 120.128 7.89773C119.488 7.51136 118.696 7.31818 117.753 7.31818H115.264V17.0455ZM129.004 18.1818C128.19 18.1818 127.485 17.9924 126.891 17.6136C126.296 17.2311 125.836 16.7027 125.51 16.0284C125.188 15.3504 125.027 14.5701 125.027 13.6875C125.027 12.8087 125.188 12.0284 125.51 11.3466C125.836 10.661 126.285 10.125 126.857 9.73864C127.432 9.34848 128.097 9.15341 128.851 9.15341C129.324 9.15341 129.781 9.24053 130.22 9.41477C130.66 9.58523 131.054 9.84848 131.402 10.2045C131.754 10.5568 132.033 11.0019 132.237 11.5398C132.442 12.0739 132.544 12.7064 132.544 13.4375V13.9375H125.726V13.0455H131.51C131.51 12.4848 131.396 11.9811 131.169 11.5341C130.946 11.0833 130.633 10.7273 130.232 10.4659C129.834 10.2045 129.374 10.0739 128.851 10.0739C128.298 10.0739 127.811 10.2216 127.391 10.517C126.97 10.8125 126.641 11.2027 126.402 11.6875C126.167 12.1723 126.048 12.7027 126.044 13.2784V13.8125C126.044 14.5057 126.163 15.1117 126.402 15.6307C126.644 16.1458 126.987 16.5455 127.43 16.8295C127.874 17.1136 128.398 17.2557 129.004 17.2557C129.417 17.2557 129.779 17.1913 130.089 17.0625C130.404 16.9337 130.667 16.7614 130.879 16.5455C131.095 16.3258 131.258 16.0852 131.368 15.8239L132.328 16.1364C132.196 16.5038 131.978 16.8428 131.675 17.1534C131.375 17.464 131 17.714 130.55 17.9034C130.103 18.089 129.588 18.1818 129.004 18.1818ZM138.21 9.27273V10.1534H134.045V9.27273H138.21ZM135.347 7.18182H136.364V15.7216C136.364 16.0852 136.426 16.3712 136.551 16.5795C136.676 16.7841 136.839 16.9299 137.04 17.017C137.241 17.1004 137.455 17.142 137.682 17.142C137.814 17.142 137.928 17.1345 138.023 17.1193C138.117 17.1004 138.201 17.0814 138.273 17.0625L138.489 17.9773C138.39 18.0152 138.269 18.0492 138.125 18.0795C137.981 18.1136 137.803 18.1307 137.591 18.1307C137.22 18.1307 136.862 18.0492 136.517 17.8864C136.176 17.7235 135.896 17.4811 135.676 17.1591C135.456 16.8371 135.347 16.4375 135.347 15.9602V7.18182ZM142.945 18.1989C142.418 18.1989 141.937 18.0966 141.501 17.892C141.066 17.6837 140.719 17.3845 140.462 16.9943C140.204 16.6004 140.075 16.1231 140.075 15.5625C140.075 15.1307 140.157 14.767 140.32 14.4716C140.482 14.1761 140.714 13.9337 141.013 13.7443C141.312 13.5549 141.666 13.4053 142.075 13.2955C142.484 13.1856 142.935 13.1004 143.428 13.0398C143.916 12.9792 144.329 12.9261 144.666 12.8807C145.007 12.8352 145.267 12.7633 145.445 12.6648C145.623 12.5663 145.712 12.4072 145.712 12.1875V11.983C145.712 11.3883 145.534 10.9205 145.178 10.5795C144.825 10.2348 144.318 10.0625 143.655 10.0625C143.026 10.0625 142.513 10.2008 142.115 10.4773C141.721 10.7538 141.445 11.0795 141.286 11.4545L140.325 11.108C140.522 10.6307 140.795 10.25 141.143 9.96591C141.492 9.67803 141.882 9.47159 142.314 9.34659C142.746 9.2178 143.183 9.15341 143.626 9.15341C143.96 9.15341 144.306 9.19697 144.666 9.28409C145.03 9.37121 145.367 9.52273 145.678 9.73864C145.988 9.95076 146.24 10.2481 146.433 10.6307C146.626 11.0095 146.723 11.4905 146.723 12.0739V18H145.712V16.6193H145.649C145.528 16.8769 145.348 17.1269 145.109 17.3693C144.871 17.6117 144.571 17.8106 144.212 17.9659C143.852 18.1212 143.429 18.1989 142.945 18.1989ZM143.081 17.2727C143.619 17.2727 144.085 17.1534 144.479 16.9148C144.873 16.6761 145.176 16.3598 145.388 15.9659C145.604 15.5682 145.712 15.1307 145.712 14.6534V13.392C145.636 13.464 145.509 13.5284 145.331 13.5852C145.157 13.642 144.954 13.6932 144.723 13.7386C144.496 13.7803 144.268 13.8163 144.041 13.8466C143.814 13.8769 143.609 13.9034 143.428 13.9261C142.935 13.9867 142.515 14.0814 142.166 14.2102C141.818 14.339 141.551 14.517 141.365 14.7443C141.179 14.9678 141.087 15.2557 141.087 15.608C141.087 16.1383 141.276 16.5492 141.655 16.8409C142.034 17.1288 142.509 17.2727 143.081 17.2727ZM149.425 18V9.27273H150.442V18H149.425ZM149.942 7.77273C149.733 7.77273 149.555 7.70265 149.408 7.5625C149.26 7.41856 149.186 7.24621 149.186 7.04545C149.186 6.8447 149.26 6.67424 149.408 6.53409C149.555 6.39015 149.733 6.31818 149.942 6.31818C150.15 6.31818 150.328 6.39015 150.476 6.53409C150.624 6.67424 150.697 6.8447 150.697 7.04545C150.697 7.24621 150.624 7.41856 150.476 7.5625C150.328 7.70265 150.15 7.77273 149.942 7.77273ZM154.128 6.36364V18H153.116V6.36364H154.128ZM162.668 11.1875L161.741 11.4489C161.651 11.1875 161.522 10.9508 161.355 10.7386C161.188 10.5265 160.971 10.358 160.702 10.233C160.437 10.108 160.107 10.0455 159.713 10.0455C159.122 10.0455 158.637 10.1856 158.259 10.4659C157.88 10.7462 157.69 11.108 157.69 11.5511C157.69 11.9261 157.819 12.2311 158.077 12.4659C158.338 12.697 158.74 12.8807 159.281 13.017L160.599 13.3409C161.33 13.5189 161.878 13.8011 162.241 14.1875C162.609 14.5739 162.793 15.0587 162.793 15.642C162.793 16.1345 162.656 16.572 162.384 16.9545C162.111 17.3371 161.73 17.6383 161.241 17.858C160.757 18.0739 160.194 18.1818 159.554 18.1818C158.702 18.1818 157.999 17.9905 157.446 17.608C156.893 17.2216 156.539 16.6648 156.384 15.9375L157.355 15.6989C157.48 16.2178 157.724 16.6098 158.088 16.875C158.455 17.1402 158.938 17.2727 159.537 17.2727C160.207 17.2727 160.743 17.1231 161.145 16.8239C161.546 16.5208 161.747 16.142 161.747 15.6875C161.747 15.3352 161.63 15.0398 161.395 14.8011C161.16 14.5587 160.804 14.3807 160.327 14.267L158.901 13.9261C158.143 13.7443 157.582 13.4564 157.219 13.0625C156.855 12.6686 156.673 12.1799 156.673 11.5966C156.673 11.1155 156.804 10.6932 157.065 10.3295C157.327 9.96212 157.687 9.67424 158.145 9.46591C158.603 9.25758 159.126 9.15341 159.713 9.15341C160.512 9.15341 161.151 9.33523 161.628 9.69886C162.109 10.0587 162.455 10.5549 162.668 11.1875Z" fill="#16151C"/>
</svg>
