<svg width="131" height="24" viewBox="0 0 131 24" fill="none" xmlns="http://www.w3.org/2000/svg">
<path d="M12 22C17.5228 22 22 17.5228 22 12C22 6.47715 17.5228 2 12 2C6.47715 2 2 6.47715 2 12C2 17.5228 6.47715 22 12 22Z" stroke="#1E1E1E" stroke-width="1.2" stroke-linecap="round" stroke-linejoin="round"/>
<path d="M12 18C15.3137 18 18 15.3137 18 12C18 8.68629 15.3137 6 12 6C8.68629 6 6 8.68629 6 12C6 15.3137 8.68629 18 12 18Z" stroke="#1E1E1E" stroke-width="1.2" stroke-linecap="round" stroke-linejoin="round"/>
<path d="M12 14C13.1046 14 14 13.1046 14 12C14 10.8954 13.1046 10 12 10C10.8954 10 10 10.8954 10 12C10 13.1046 10.8954 14 12 14Z" stroke="#1E1E1E" stroke-width="1.2" stroke-linecap="round" stroke-linejoin="round"/>
<path d="M35.5455 18V6.36364H42.2955V7.31818H36.608V11.6989H41.9375V12.6534H36.608V17.0455H42.4091V18H35.5455ZM45.4602 9.27273L47.7102 12.9943L49.9602 9.27273H51.1364L48.3295 13.6364L51.1364 18H49.9602L47.7102 14.3977L45.4602 18H44.2898L47.0625 13.6364L44.2898 9.27273H45.4602ZM53.2571 21.2727V9.27273H54.2401V10.9375H54.3594C54.4806 10.6761 54.6473 10.4091 54.8594 10.1364C55.0715 9.85985 55.3518 9.62689 55.7003 9.4375C56.0526 9.24811 56.4957 9.15341 57.0298 9.15341C57.7495 9.15341 58.3783 9.3428 58.9162 9.72159C59.4579 10.0966 59.8783 10.6231 60.1776 11.3011C60.4806 11.9754 60.6321 12.7614 60.6321 13.6591C60.6321 14.5606 60.4806 15.3504 60.1776 16.0284C59.8783 16.7064 59.4579 17.2348 58.9162 17.6136C58.3783 17.9924 57.7533 18.1818 57.0412 18.1818C56.5147 18.1818 56.0734 18.0871 55.7173 17.8977C55.3651 17.7083 55.0791 17.4754 54.8594 17.1989C54.6435 16.9186 54.4768 16.6458 54.3594 16.3807H54.2685V21.2727H53.2571ZM54.2571 13.642C54.2571 14.3466 54.3613 14.9716 54.5696 15.517C54.7817 16.0587 55.0848 16.4848 55.4787 16.7955C55.8764 17.1023 56.3575 17.2557 56.9219 17.2557C57.5014 17.2557 57.9901 17.0966 58.3878 16.7784C58.7893 16.4564 59.0942 16.0227 59.3026 15.4773C59.5147 14.9318 59.6207 14.3201 59.6207 13.642C59.6207 12.9716 59.5166 12.3674 59.3082 11.8295C59.1037 11.2917 58.8007 10.8655 58.3991 10.5511C57.9976 10.233 57.5052 10.0739 56.9219 10.0739C56.3537 10.0739 55.8707 10.2273 55.473 10.5341C55.0753 10.8371 54.7723 11.2576 54.5639 11.7955C54.3594 12.3295 54.2571 12.9451 54.2571 13.642ZM66.3793 18.1818C65.5649 18.1818 64.8603 17.9924 64.2656 17.6136C63.6709 17.2311 63.2107 16.7027 62.8849 16.0284C62.563 15.3504 62.402 14.5701 62.402 13.6875C62.402 12.8087 62.563 12.0284 62.8849 11.3466C63.2107 10.661 63.6596 10.125 64.2315 9.73864C64.8073 9.34848 65.4721 9.15341 66.2259 9.15341C66.6993 9.15341 67.1558 9.24053 67.5952 9.41477C68.0346 9.58523 68.4285 9.84848 68.777 10.2045C69.1293 10.5568 69.4077 11.0019 69.6122 11.5398C69.8168 12.0739 69.919 12.7064 69.919 13.4375V13.9375H63.1009V13.0455H68.8849C68.8849 12.4848 68.7713 11.9811 68.544 11.5341C68.3205 11.0833 68.008 10.7273 67.6065 10.4659C67.2088 10.2045 66.7486 10.0739 66.2259 10.0739C65.6728 10.0739 65.1861 10.2216 64.7656 10.517C64.3452 10.8125 64.0156 11.2027 63.777 11.6875C63.5421 12.1723 63.4228 12.7027 63.419 13.2784V13.8125C63.419 14.5057 63.5384 15.1117 63.777 15.6307C64.0194 16.1458 64.3622 16.5455 64.8054 16.8295C65.2486 17.1136 65.7732 17.2557 66.3793 17.2557C66.7921 17.2557 67.1539 17.1913 67.4645 17.0625C67.7789 16.9337 68.0421 16.7614 68.2543 16.5455C68.4702 16.3258 68.633 16.0852 68.7429 15.8239L69.7031 16.1364C69.5705 16.5038 69.3527 16.8428 69.0497 17.1534C68.7505 17.464 68.3755 17.714 67.9247 17.9034C67.4777 18.089 66.9626 18.1818 66.3793 18.1818ZM75.5568 18.1818C74.7765 18.1818 74.0966 17.9867 73.517 17.5966C72.9413 17.2064 72.4943 16.6723 72.1761 15.9943C71.858 15.3163 71.6989 14.5436 71.6989 13.6761C71.6989 12.8011 71.8598 12.0227 72.1818 11.3409C72.5076 10.6591 72.9583 10.125 73.5341 9.73864C74.1098 9.34848 74.7784 9.15341 75.5398 9.15341C76.1231 9.15341 76.6515 9.26705 77.125 9.49432C77.5985 9.7178 77.9886 10.0341 78.2955 10.4432C78.6061 10.8485 78.8011 11.322 78.8807 11.8636H77.858C77.7519 11.3712 77.4962 10.9508 77.0909 10.6023C76.6894 10.25 76.178 10.0739 75.5568 10.0739C75 10.0739 74.5076 10.2254 74.0795 10.5284C73.6515 10.8277 73.3163 11.2462 73.0739 11.7841C72.8352 12.3182 72.7159 12.9375 72.7159 13.642C72.7159 14.3504 72.8333 14.9773 73.0682 15.5227C73.303 16.0644 73.6326 16.4886 74.0568 16.7955C74.4848 17.1023 74.9848 17.2557 75.5568 17.2557C75.9432 17.2557 76.2955 17.1837 76.6136 17.0398C76.9356 16.892 77.2045 16.6837 77.4205 16.4148C77.6402 16.1458 77.7879 15.8258 77.8636 15.4545H78.8864C78.8106 15.9811 78.6231 16.4508 78.3239 16.8636C78.0284 17.2727 77.6439 17.5947 77.1705 17.8295C76.7008 18.0644 76.1629 18.1818 75.5568 18.1818ZM84.4915 9.27273V10.1534H80.3267V9.27273H84.4915ZM81.6278 7.18182H82.6449V15.7216C82.6449 16.0852 82.7074 16.3712 82.8324 16.5795C82.9574 16.7841 83.1203 16.9299 83.321 17.017C83.5218 17.1004 83.7358 17.142 83.9631 17.142C84.0956 17.142 84.2093 17.1345 84.304 17.1193C84.3987 17.1004 84.482 17.0814 84.554 17.0625L84.7699 17.9773C84.6714 18.0152 84.5502 18.0492 84.4062 18.0795C84.2623 18.1136 84.0843 18.1307 83.8722 18.1307C83.5009 18.1307 83.143 18.0492 82.7983 17.8864C82.4574 17.7235 82.1771 17.4811 81.9574 17.1591C81.7377 16.8371 81.6278 16.4375 81.6278 15.9602V7.18182ZM89.2259 18.1989C88.6993 18.1989 88.2183 18.0966 87.7827 17.892C87.3471 17.6837 87.0005 17.3845 86.7429 16.9943C86.4853 16.6004 86.3565 16.1231 86.3565 15.5625C86.3565 15.1307 86.438 14.767 86.6009 14.4716C86.7637 14.1761 86.9948 13.9337 87.294 13.7443C87.5933 13.5549 87.9474 13.4053 88.3565 13.2955C88.7656 13.1856 89.2164 13.1004 89.7088 13.0398C90.1974 12.9792 90.6103 12.9261 90.9474 12.8807C91.2884 12.8352 91.5478 12.7633 91.7259 12.6648C91.9039 12.5663 91.9929 12.4072 91.9929 12.1875V11.983C91.9929 11.3883 91.8149 10.9205 91.4588 10.5795C91.1065 10.2348 90.599 10.0625 89.9361 10.0625C89.3073 10.0625 88.794 10.2008 88.3963 10.4773C88.0024 10.7538 87.7259 11.0795 87.5668 11.4545L86.6065 11.108C86.8035 10.6307 87.0762 10.25 87.4247 9.96591C87.7732 9.67803 88.1634 9.47159 88.5952 9.34659C89.027 9.2178 89.4645 9.15341 89.9077 9.15341C90.241 9.15341 90.5876 9.19697 90.9474 9.28409C91.3111 9.37121 91.6482 9.52273 91.9588 9.73864C92.2694 9.95076 92.5213 10.2481 92.7145 10.6307C92.9077 11.0095 93.0043 11.4905 93.0043 12.0739V18H91.9929V16.6193H91.9304C91.8092 16.8769 91.6293 17.1269 91.3906 17.3693C91.152 17.6117 90.8527 17.8106 90.4929 17.9659C90.133 18.1212 89.7107 18.1989 89.2259 18.1989ZM89.3622 17.2727C89.9001 17.2727 90.366 17.1534 90.7599 16.9148C91.1539 16.6761 91.4569 16.3598 91.669 15.9659C91.8849 15.5682 91.9929 15.1307 91.9929 14.6534V13.392C91.9171 13.464 91.7902 13.5284 91.6122 13.5852C91.438 13.642 91.2353 13.6932 91.0043 13.7386C90.777 13.7803 90.5497 13.8163 90.3224 13.8466C90.0952 13.8769 89.8906 13.9034 89.7088 13.9261C89.2164 13.9867 88.7959 14.0814 88.4474 14.2102C88.099 14.339 87.8319 14.517 87.6463 14.7443C87.4607 14.9678 87.3679 15.2557 87.3679 15.608C87.3679 16.1383 87.5573 16.5492 87.9361 16.8409C88.3149 17.1288 88.7902 17.2727 89.3622 17.2727ZM99.1321 9.27273V10.1534H94.9673V9.27273H99.1321ZM96.2685 7.18182H97.2855V15.7216C97.2855 16.0852 97.348 16.3712 97.473 16.5795C97.598 16.7841 97.7609 16.9299 97.9616 17.017C98.1624 17.1004 98.3764 17.142 98.6037 17.142C98.7363 17.142 98.8499 17.1345 98.9446 17.1193C99.0393 17.1004 99.1226 17.0814 99.1946 17.0625L99.4105 17.9773C99.312 18.0152 99.1908 18.0492 99.0469 18.0795C98.9029 18.1136 98.7249 18.1307 98.5128 18.1307C98.1416 18.1307 97.7836 18.0492 97.4389 17.8864C97.098 17.7235 96.8177 17.4811 96.598 17.1591C96.3783 16.8371 96.2685 16.4375 96.2685 15.9602V7.18182ZM101.44 18V9.27273H102.457V18H101.44ZM101.957 7.77273C101.749 7.77273 101.571 7.70265 101.423 7.5625C101.276 7.41856 101.202 7.24621 101.202 7.04545C101.202 6.8447 101.276 6.67424 101.423 6.53409C101.571 6.39015 101.749 6.31818 101.957 6.31818C102.166 6.31818 102.344 6.39015 102.491 6.53409C102.639 6.67424 102.713 6.8447 102.713 7.04545C102.713 7.24621 102.639 7.41856 102.491 7.5625C102.344 7.70265 102.166 7.77273 101.957 7.77273ZM108.524 18.1818C107.77 18.1818 107.104 17.9905 106.524 17.608C105.948 17.2254 105.498 16.697 105.172 16.0227C104.846 15.3447 104.683 14.5625 104.683 13.6761C104.683 12.7822 104.846 11.9962 105.172 11.3182C105.498 10.6364 105.948 10.1061 106.524 9.72727C107.104 9.3447 107.77 9.15341 108.524 9.15341C109.278 9.15341 109.943 9.3447 110.518 9.72727C111.094 10.1098 111.545 10.6402 111.871 11.3182C112.2 11.9962 112.365 12.7822 112.365 13.6761C112.365 14.5625 112.202 15.3447 111.876 16.0227C111.551 16.697 111.098 17.2254 110.518 17.608C109.943 17.9905 109.278 18.1818 108.524 18.1818ZM108.524 17.2557C109.13 17.2557 109.643 17.0928 110.064 16.767C110.484 16.4413 110.803 16.0076 111.018 15.4659C111.238 14.9242 111.348 14.3277 111.348 13.6761C111.348 13.0246 111.238 12.4261 111.018 11.8807C110.803 11.3352 110.484 10.8977 110.064 10.5682C109.643 10.2386 109.13 10.0739 108.524 10.0739C107.922 10.0739 107.409 10.2386 106.984 10.5682C106.564 10.8977 106.244 11.3352 106.024 11.8807C105.808 12.4261 105.7 13.0246 105.7 13.6761C105.7 14.3277 105.808 14.9242 106.024 15.4659C106.244 16.0076 106.564 16.4413 106.984 16.767C107.405 17.0928 107.918 17.2557 108.524 17.2557ZM115.597 12.5455V18H114.585V9.27273H115.568V10.642H115.659C115.864 10.1951 116.182 9.83712 116.614 9.56818C117.049 9.29545 117.587 9.15909 118.227 9.15909C118.814 9.15909 119.33 9.2822 119.773 9.52841C120.22 9.77083 120.566 10.1288 120.812 10.6023C121.062 11.0758 121.188 11.6572 121.188 12.3466V18H120.176V12.4091C120.176 11.6932 119.975 11.1269 119.574 10.7102C119.176 10.2936 118.642 10.0852 117.972 10.0852C117.513 10.0852 117.106 10.1837 116.75 10.3807C116.394 10.5777 116.112 10.8617 115.903 11.233C115.699 11.6004 115.597 12.0379 115.597 12.5455ZM129.714 11.1875L128.788 11.4489C128.697 11.1875 128.569 10.9508 128.402 10.7386C128.235 10.5265 128.018 10.358 127.749 10.233C127.483 10.108 127.154 10.0455 126.76 10.0455C126.169 10.0455 125.684 10.1856 125.305 10.4659C124.927 10.7462 124.737 11.108 124.737 11.5511C124.737 11.9261 124.866 12.2311 125.124 12.4659C125.385 12.697 125.786 12.8807 126.328 13.017L127.646 13.3409C128.377 13.5189 128.925 13.8011 129.288 14.1875C129.656 14.5739 129.839 15.0587 129.839 15.642C129.839 16.1345 129.703 16.572 129.43 16.9545C129.158 17.3371 128.777 17.6383 128.288 17.858C127.804 18.0739 127.241 18.1818 126.601 18.1818C125.749 18.1818 125.046 17.9905 124.493 17.608C123.94 17.2216 123.586 16.6648 123.43 15.9375L124.402 15.6989C124.527 16.2178 124.771 16.6098 125.135 16.875C125.502 17.1402 125.985 17.2727 126.584 17.2727C127.254 17.2727 127.79 17.1231 128.192 16.8239C128.593 16.5208 128.794 16.142 128.794 15.6875C128.794 15.3352 128.677 15.0398 128.442 14.8011C128.207 14.5587 127.851 14.3807 127.374 14.267L125.947 13.9261C125.19 13.7443 124.629 13.4564 124.266 13.0625C123.902 12.6686 123.72 12.1799 123.72 11.5966C123.72 11.1155 123.851 10.6932 124.112 10.3295C124.374 9.96212 124.733 9.67424 125.192 9.46591C125.65 9.25758 126.173 9.15341 126.76 9.15341C127.559 9.15341 128.197 9.33523 128.675 9.69886C129.156 10.0587 129.502 10.5549 129.714 11.1875Z" fill="#16151C"/>
</svg>
