<svg width="224" height="24" viewBox="0 0 224 24" fill="none" xmlns="http://www.w3.org/2000/svg">
<path d="M7.77861 6.00161C8.11954 5.94761 8.35215 5.62746 8.29815 5.28653C8.24415 4.9456 7.924 4.713 7.58307 4.767C5.53275 5.09174 3.92472 6.69977 3.59998 8.75009C3.54598 9.09102 3.77859 9.41117 4.11951 9.46517C4.46044 9.51916 4.78059 9.28656 4.83459 8.94563C5.07461 7.43018 6.26316 6.24163 7.77861 6.00161Z" fill="#2D264B"/>
<path fill-rule="evenodd" clip-rule="evenodd" d="M9.16602 2.20801C4.6787 2.20801 1.04102 5.84569 1.04102 10.333C1.04102 14.8203 4.6787 18.458 9.16602 18.458C13.6533 18.458 17.291 14.8203 17.291 10.333C17.291 5.84569 13.6533 2.20801 9.16602 2.20801ZM2.29102 10.333C2.29102 6.53605 5.36906 3.45801 9.16602 3.45801C12.963 3.45801 16.041 6.53605 16.041 10.333C16.041 14.13 12.963 17.208 9.16602 17.208C5.36906 17.208 2.29102 14.13 2.29102 10.333Z" fill="#2D264B"/>
<path d="M16.2747 16.5578C16.0306 16.3137 15.6349 16.3137 15.3908 16.5578C15.1467 16.8019 15.1467 17.1976 15.3908 17.4417L18.724 20.775C18.9681 21.0191 19.3638 21.0191 19.6079 20.775C19.852 20.5309 19.852 20.1352 19.6079 19.8911L16.2747 16.5578Z" fill="#2D264B"/>
<path d="M31.5455 18V6.36364H35.3011C36.1269 6.36364 36.8163 6.51326 37.3693 6.8125C37.9261 7.10795 38.3447 7.51894 38.625 8.04545C38.9091 8.56818 39.0511 9.16856 39.0511 9.84659C39.0511 10.5246 38.9091 11.1231 38.625 11.642C38.3447 12.161 37.928 12.5663 37.375 12.858C36.822 13.1496 36.1364 13.2955 35.3182 13.2955H32.1193V12.3239H35.2898C35.8958 12.3239 36.3996 12.2235 36.8011 12.0227C37.2064 11.822 37.5076 11.536 37.7045 11.1648C37.9053 10.7936 38.0057 10.3542 38.0057 9.84659C38.0057 9.33902 37.9053 8.89583 37.7045 8.51705C37.5038 8.13447 37.2008 7.83902 36.7955 7.63068C36.3939 7.42235 35.8864 7.31818 35.2727 7.31818H32.608V18H31.5455ZM36.6761 12.75L39.5398 18H38.3125L35.4773 12.75H36.6761ZM44.7273 18.1818C43.9735 18.1818 43.3068 17.9905 42.7273 17.608C42.1515 17.2254 41.7008 16.697 41.375 16.0227C41.0492 15.3447 40.8864 14.5625 40.8864 13.6761C40.8864 12.7822 41.0492 11.9962 41.375 11.3182C41.7008 10.6364 42.1515 10.1061 42.7273 9.72727C43.3068 9.3447 43.9735 9.15341 44.7273 9.15341C45.4811 9.15341 46.1458 9.3447 46.7216 9.72727C47.2973 10.1098 47.7481 10.6402 48.0739 11.3182C48.4034 11.9962 48.5682 12.7822 48.5682 13.6761C48.5682 14.5625 48.4053 15.3447 48.0795 16.0227C47.7538 16.697 47.3011 17.2254 46.7216 17.608C46.1458 17.9905 45.4811 18.1818 44.7273 18.1818ZM44.7273 17.2557C45.3333 17.2557 45.8466 17.0928 46.267 16.767C46.6875 16.4413 47.0057 16.0076 47.2216 15.4659C47.4413 14.9242 47.5511 14.3277 47.5511 13.6761C47.5511 13.0246 47.4413 12.4261 47.2216 11.8807C47.0057 11.3352 46.6875 10.8977 46.267 10.5682C45.8466 10.2386 45.3333 10.0739 44.7273 10.0739C44.125 10.0739 43.6117 10.2386 43.1875 10.5682C42.767 10.8977 42.447 11.3352 42.2273 11.8807C42.0114 12.4261 41.9034 13.0246 41.9034 13.6761C41.9034 14.3277 42.0114 14.9242 42.2273 15.4659C42.447 16.0076 42.767 16.4413 43.1875 16.767C43.608 17.0928 44.1212 17.2557 44.7273 17.2557ZM51.7997 6.36364V18H50.7884V6.36364H51.7997ZM58.0043 18.1818C57.1899 18.1818 56.4853 17.9924 55.8906 17.6136C55.2959 17.2311 54.8357 16.7027 54.5099 16.0284C54.188 15.3504 54.027 14.5701 54.027 13.6875C54.027 12.8087 54.188 12.0284 54.5099 11.3466C54.8357 10.661 55.2846 10.125 55.8565 9.73864C56.4323 9.34848 57.0971 9.15341 57.8509 9.15341C58.3243 9.15341 58.7808 9.24053 59.2202 9.41477C59.6596 9.58523 60.0535 9.84848 60.402 10.2045C60.7543 10.5568 61.0327 11.0019 61.2372 11.5398C61.4418 12.0739 61.544 12.7064 61.544 13.4375V13.9375H54.7259V13.0455H60.5099C60.5099 12.4848 60.3963 11.9811 60.169 11.5341C59.9455 11.0833 59.633 10.7273 59.2315 10.4659C58.8338 10.2045 58.3736 10.0739 57.8509 10.0739C57.2978 10.0739 56.8111 10.2216 56.3906 10.517C55.9702 10.8125 55.6406 11.2027 55.402 11.6875C55.1671 12.1723 55.0478 12.7027 55.044 13.2784V13.8125C55.044 14.5057 55.1634 15.1117 55.402 15.6307C55.6444 16.1458 55.9872 16.5455 56.4304 16.8295C56.8736 17.1136 57.3982 17.2557 58.0043 17.2557C58.4171 17.2557 58.7789 17.1913 59.0895 17.0625C59.4039 16.9337 59.6671 16.7614 59.8793 16.5455C60.0952 16.3258 60.258 16.0852 60.3679 15.8239L61.3281 16.1364C61.1955 16.5038 60.9777 16.8428 60.6747 17.1534C60.3755 17.464 60.0005 17.714 59.5497 17.9034C59.1027 18.089 58.5876 18.1818 58.0043 18.1818ZM69.6364 11.1875L68.7102 11.4489C68.6193 11.1875 68.4905 10.9508 68.3239 10.7386C68.1572 10.5265 67.9394 10.358 67.6705 10.233C67.4053 10.108 67.0758 10.0455 66.6818 10.0455C66.0909 10.0455 65.6061 10.1856 65.2273 10.4659C64.8485 10.7462 64.6591 11.108 64.6591 11.5511C64.6591 11.9261 64.7879 12.2311 65.0455 12.4659C65.3068 12.697 65.7083 12.8807 66.25 13.017L67.5682 13.3409C68.2992 13.5189 68.8466 13.8011 69.2102 14.1875C69.5777 14.5739 69.7614 15.0587 69.7614 15.642C69.7614 16.1345 69.625 16.572 69.3523 16.9545C69.0795 17.3371 68.6989 17.6383 68.2102 17.858C67.7254 18.0739 67.1629 18.1818 66.5227 18.1818C65.6705 18.1818 64.9678 17.9905 64.4148 17.608C63.8617 17.2216 63.5076 16.6648 63.3523 15.9375L64.3239 15.6989C64.4489 16.2178 64.6932 16.6098 65.0568 16.875C65.4242 17.1402 65.9072 17.2727 66.5057 17.2727C67.1761 17.2727 67.7121 17.1231 68.1136 16.8239C68.5152 16.5208 68.7159 16.142 68.7159 15.6875C68.7159 15.3352 68.5985 15.0398 68.3636 14.8011C68.1288 14.5587 67.7727 14.3807 67.2955 14.267L65.8693 13.9261C65.1117 13.7443 64.5511 13.4564 64.1875 13.0625C63.8239 12.6686 63.642 12.1799 63.642 11.5966C63.642 11.1155 63.7727 10.6932 64.0341 10.3295C64.2955 9.96212 64.6553 9.67424 65.1136 9.46591C65.572 9.25758 66.0947 9.15341 66.6818 9.15341C67.4811 9.15341 68.1193 9.33523 68.5966 9.69886C69.0777 10.0587 69.4242 10.5549 69.6364 11.1875ZM78.9134 18.1989C78.3868 18.1989 77.9058 18.0966 77.4702 17.892C77.0346 17.6837 76.688 17.3845 76.4304 16.9943C76.1728 16.6004 76.044 16.1231 76.044 15.5625C76.044 15.1307 76.1255 14.767 76.2884 14.4716C76.4512 14.1761 76.6823 13.9337 76.9815 13.7443C77.2808 13.5549 77.6349 13.4053 78.044 13.2955C78.4531 13.1856 78.9039 13.1004 79.3963 13.0398C79.8849 12.9792 80.2978 12.9261 80.6349 12.8807C80.9759 12.8352 81.2353 12.7633 81.4134 12.6648C81.5914 12.5663 81.6804 12.4072 81.6804 12.1875V11.983C81.6804 11.3883 81.5024 10.9205 81.1463 10.5795C80.794 10.2348 80.2865 10.0625 79.6236 10.0625C78.9948 10.0625 78.4815 10.2008 78.0838 10.4773C77.6899 10.7538 77.4134 11.0795 77.2543 11.4545L76.294 11.108C76.491 10.6307 76.7637 10.25 77.1122 9.96591C77.4607 9.67803 77.8509 9.47159 78.2827 9.34659C78.7145 9.2178 79.152 9.15341 79.5952 9.15341C79.9285 9.15341 80.2751 9.19697 80.6349 9.28409C80.9986 9.37121 81.3357 9.52273 81.6463 9.73864C81.9569 9.95076 82.2088 10.2481 82.402 10.6307C82.5952 11.0095 82.6918 11.4905 82.6918 12.0739V18H81.6804V16.6193H81.6179C81.4967 16.8769 81.3168 17.1269 81.0781 17.3693C80.8395 17.6117 80.5402 17.8106 80.1804 17.9659C79.8205 18.1212 79.3982 18.1989 78.9134 18.1989ZM79.0497 17.2727C79.5876 17.2727 80.0535 17.1534 80.4474 16.9148C80.8414 16.6761 81.1444 16.3598 81.3565 15.9659C81.5724 15.5682 81.6804 15.1307 81.6804 14.6534V13.392C81.6046 13.464 81.4777 13.5284 81.2997 13.5852C81.1255 13.642 80.9228 13.6932 80.6918 13.7386C80.4645 13.7803 80.2372 13.8163 80.0099 13.8466C79.7827 13.8769 79.5781 13.9034 79.3963 13.9261C78.9039 13.9867 78.4834 14.0814 78.1349 14.2102C77.7865 14.339 77.5194 14.517 77.3338 14.7443C77.1482 14.9678 77.0554 15.2557 77.0554 15.608C77.0554 16.1383 77.2448 16.5492 77.6236 16.8409C78.0024 17.1288 78.4777 17.2727 79.0497 17.2727ZM86.3935 12.5455V18H85.3821V9.27273H86.3651V10.642H86.456C86.6605 10.1951 86.9787 9.83712 87.4105 9.56818C87.8461 9.29545 88.384 9.15909 89.0241 9.15909C89.6113 9.15909 90.1264 9.2822 90.5696 9.52841C91.0166 9.77083 91.3632 10.1288 91.6094 10.6023C91.8594 11.0758 91.9844 11.6572 91.9844 12.3466V18H90.973V12.4091C90.973 11.6932 90.7723 11.1269 90.3707 10.7102C89.973 10.2936 89.4389 10.0852 88.7685 10.0852C88.3101 10.0852 87.9029 10.1837 87.5469 10.3807C87.1908 10.5777 86.9086 10.8617 86.7003 11.233C86.4957 11.6004 86.3935 12.0379 86.3935 12.5455ZM97.7898 18.1818C97.0739 18.1818 96.447 17.9924 95.9091 17.6136C95.3712 17.2348 94.9508 16.7064 94.6477 16.0284C94.3485 15.3504 94.1989 14.5606 94.1989 13.6591C94.1989 12.7614 94.3485 11.9754 94.6477 11.3011C94.9508 10.6231 95.3731 10.0966 95.9148 9.72159C96.4564 9.3428 97.0871 9.15341 97.8068 9.15341C98.3371 9.15341 98.7784 9.24811 99.1307 9.4375C99.483 9.62311 99.7652 9.85417 99.9773 10.1307C100.189 10.4072 100.354 10.6761 100.472 10.9375H100.562V6.36364H101.58V18H100.591V16.3807H100.472C100.354 16.6458 100.188 16.9186 99.9716 17.1989C99.7557 17.4754 99.4697 17.7083 99.1136 17.8977C98.7614 18.0871 98.3201 18.1818 97.7898 18.1818ZM97.9091 17.2557C98.4735 17.2557 98.9545 17.1023 99.3523 16.7955C99.75 16.4848 100.053 16.0587 100.261 15.517C100.473 14.9716 100.58 14.3466 100.58 13.642C100.58 12.9451 100.475 12.3295 100.267 11.7955C100.059 11.2576 99.7557 10.8371 99.358 10.5341C98.9602 10.2273 98.4773 10.0739 97.9091 10.0739C97.3258 10.0739 96.8333 10.233 96.4318 10.5511C96.0341 10.8655 95.7311 11.2917 95.5227 11.8295C95.3182 12.3674 95.2159 12.9716 95.2159 13.642C95.2159 14.3201 95.3201 14.9318 95.5284 15.4773C95.7367 16.0227 96.0398 16.4564 96.4375 16.7784C96.839 17.0966 97.3295 17.2557 97.9091 17.2557ZM109.17 18V6.36364H112.926C113.752 6.36364 114.441 6.51326 114.994 6.8125C115.551 7.10795 115.97 7.51894 116.25 8.04545C116.534 8.56818 116.676 9.16856 116.676 9.84659C116.676 10.5246 116.534 11.1231 116.25 11.642C115.97 12.161 115.553 12.5663 115 12.858C114.447 13.1496 113.761 13.2955 112.943 13.2955H109.744V12.3239H112.915C113.521 12.3239 114.025 12.2235 114.426 12.0227C114.831 11.822 115.133 11.536 115.33 11.1648C115.53 10.7936 115.631 10.3542 115.631 9.84659C115.631 9.33902 115.53 8.89583 115.33 8.51705C115.129 8.13447 114.826 7.83902 114.42 7.63068C114.019 7.42235 113.511 7.31818 112.898 7.31818H110.233V18H109.17ZM114.301 12.75L117.165 18H115.938L113.102 12.75H114.301ZM122.489 18.1818C121.674 18.1818 120.97 17.9924 120.375 17.6136C119.78 17.2311 119.32 16.7027 118.994 16.0284C118.672 15.3504 118.511 14.5701 118.511 13.6875C118.511 12.8087 118.672 12.0284 118.994 11.3466C119.32 10.661 119.769 10.125 120.341 9.73864C120.917 9.34848 121.581 9.15341 122.335 9.15341C122.809 9.15341 123.265 9.24053 123.705 9.41477C124.144 9.58523 124.538 9.84848 124.886 10.2045C125.239 10.5568 125.517 11.0019 125.722 11.5398C125.926 12.0739 126.028 12.7064 126.028 13.4375V13.9375H119.21V13.0455H124.994C124.994 12.4848 124.881 11.9811 124.653 11.5341C124.43 11.0833 124.117 10.7273 123.716 10.4659C123.318 10.2045 122.858 10.0739 122.335 10.0739C121.782 10.0739 121.295 10.2216 120.875 10.517C120.455 10.8125 120.125 11.2027 119.886 11.6875C119.652 12.1723 119.532 12.7027 119.528 13.2784V13.8125C119.528 14.5057 119.648 15.1117 119.886 15.6307C120.129 16.1458 120.472 16.5455 120.915 16.8295C121.358 17.1136 121.883 17.2557 122.489 17.2557C122.902 17.2557 123.263 17.1913 123.574 17.0625C123.888 16.9337 124.152 16.7614 124.364 16.5455C124.58 16.3258 124.742 16.0852 124.852 15.8239L125.812 16.1364C125.68 16.5038 125.462 16.8428 125.159 17.1534C124.86 17.464 124.485 17.714 124.034 17.9034C123.587 18.089 123.072 18.1818 122.489 18.1818ZM134.121 11.1875L133.195 11.4489C133.104 11.1875 132.975 10.9508 132.808 10.7386C132.642 10.5265 132.424 10.358 132.155 10.233C131.89 10.108 131.56 10.0455 131.166 10.0455C130.575 10.0455 130.09 10.1856 129.712 10.4659C129.333 10.7462 129.143 11.108 129.143 11.5511C129.143 11.9261 129.272 12.2311 129.53 12.4659C129.791 12.697 130.193 12.8807 130.734 13.017L132.053 13.3409C132.784 13.5189 133.331 13.8011 133.695 14.1875C134.062 14.5739 134.246 15.0587 134.246 15.642C134.246 16.1345 134.109 16.572 133.837 16.9545C133.564 17.3371 133.183 17.6383 132.695 17.858C132.21 18.0739 131.647 18.1818 131.007 18.1818C130.155 18.1818 129.452 17.9905 128.899 17.608C128.346 17.2216 127.992 16.6648 127.837 15.9375L128.808 15.6989C128.933 16.2178 129.178 16.6098 129.541 16.875C129.909 17.1402 130.392 17.2727 130.99 17.2727C131.661 17.2727 132.196 17.1231 132.598 16.8239C133 16.5208 133.2 16.142 133.2 15.6875C133.2 15.3352 133.083 15.0398 132.848 14.8011C132.613 14.5587 132.257 14.3807 131.78 14.267L130.354 13.9261C129.596 13.7443 129.036 13.4564 128.672 13.0625C128.308 12.6686 128.126 12.1799 128.126 11.5966C128.126 11.1155 128.257 10.6932 128.518 10.3295C128.78 9.96212 129.14 9.67424 129.598 9.46591C130.056 9.25758 130.579 9.15341 131.166 9.15341C131.965 9.15341 132.604 9.33523 133.081 9.69886C133.562 10.0587 133.909 10.5549 134.121 11.1875ZM136.46 21.2727V9.27273H137.443V10.9375H137.562C137.684 10.6761 137.85 10.4091 138.062 10.1364C138.275 9.85985 138.555 9.62689 138.903 9.4375C139.256 9.24811 139.699 9.15341 140.233 9.15341C140.953 9.15341 141.581 9.3428 142.119 9.72159C142.661 10.0966 143.081 10.6231 143.381 11.3011C143.684 11.9754 143.835 12.7614 143.835 13.6591C143.835 14.5606 143.684 15.3504 143.381 16.0284C143.081 16.7064 142.661 17.2348 142.119 17.6136C141.581 17.9924 140.956 18.1818 140.244 18.1818C139.718 18.1818 139.277 18.0871 138.92 17.8977C138.568 17.7083 138.282 17.4754 138.062 17.1989C137.847 16.9186 137.68 16.6458 137.562 16.3807H137.472V21.2727H136.46ZM137.46 13.642C137.46 14.3466 137.564 14.9716 137.773 15.517C137.985 16.0587 138.288 16.4848 138.682 16.7955C139.08 17.1023 139.561 17.2557 140.125 17.2557C140.705 17.2557 141.193 17.0966 141.591 16.7784C141.992 16.4564 142.297 16.0227 142.506 15.4773C142.718 14.9318 142.824 14.3201 142.824 13.642C142.824 12.9716 142.72 12.3674 142.511 11.8295C142.307 11.2917 142.004 10.8655 141.602 10.5511C141.201 10.233 140.708 10.0739 140.125 10.0739C139.557 10.0739 139.074 10.2273 138.676 10.5341C138.278 10.8371 137.975 11.2576 137.767 11.7955C137.562 12.3295 137.46 12.9451 137.46 13.642ZM149.446 18.1818C148.692 18.1818 148.026 17.9905 147.446 17.608C146.87 17.2254 146.42 16.697 146.094 16.0227C145.768 15.3447 145.605 14.5625 145.605 13.6761C145.605 12.7822 145.768 11.9962 146.094 11.3182C146.42 10.6364 146.87 10.1061 147.446 9.72727C148.026 9.3447 148.692 9.15341 149.446 9.15341C150.2 9.15341 150.865 9.3447 151.44 9.72727C152.016 10.1098 152.467 10.6402 152.793 11.3182C153.122 11.9962 153.287 12.7822 153.287 13.6761C153.287 14.5625 153.124 15.3447 152.798 16.0227C152.473 16.697 152.02 17.2254 151.44 17.608C150.865 17.9905 150.2 18.1818 149.446 18.1818ZM149.446 17.2557C150.052 17.2557 150.565 17.0928 150.986 16.767C151.406 16.4413 151.724 16.0076 151.94 15.4659C152.16 14.9242 152.27 14.3277 152.27 13.6761C152.27 13.0246 152.16 12.4261 151.94 11.8807C151.724 11.3352 151.406 10.8977 150.986 10.5682C150.565 10.2386 150.052 10.0739 149.446 10.0739C148.844 10.0739 148.33 10.2386 147.906 10.5682C147.486 10.8977 147.166 11.3352 146.946 11.8807C146.73 12.4261 146.622 13.0246 146.622 13.6761C146.622 14.3277 146.73 14.9242 146.946 15.4659C147.166 16.0076 147.486 16.4413 147.906 16.767C148.327 17.0928 148.84 17.2557 149.446 17.2557ZM156.518 12.5455V18H155.507V9.27273H156.49V10.642H156.581C156.786 10.1951 157.104 9.83712 157.536 9.56818C157.971 9.29545 158.509 9.15909 159.149 9.15909C159.736 9.15909 160.251 9.2822 160.695 9.52841C161.142 9.77083 161.488 10.1288 161.734 10.6023C161.984 11.0758 162.109 11.6572 162.109 12.3466V18H161.098V12.4091C161.098 11.6932 160.897 11.1269 160.496 10.7102C160.098 10.2936 159.564 10.0852 158.893 10.0852C158.435 10.0852 158.028 10.1837 157.672 10.3807C157.316 10.5777 157.034 10.8617 156.825 11.233C156.621 11.6004 156.518 12.0379 156.518 12.5455ZM170.636 11.1875L169.71 11.4489C169.619 11.1875 169.491 10.9508 169.324 10.7386C169.157 10.5265 168.939 10.358 168.67 10.233C168.405 10.108 168.076 10.0455 167.682 10.0455C167.091 10.0455 166.606 10.1856 166.227 10.4659C165.848 10.7462 165.659 11.108 165.659 11.5511C165.659 11.9261 165.788 12.2311 166.045 12.4659C166.307 12.697 166.708 12.8807 167.25 13.017L168.568 13.3409C169.299 13.5189 169.847 13.8011 170.21 14.1875C170.578 14.5739 170.761 15.0587 170.761 15.642C170.761 16.1345 170.625 16.572 170.352 16.9545C170.08 17.3371 169.699 17.6383 169.21 17.858C168.725 18.0739 168.163 18.1818 167.523 18.1818C166.67 18.1818 165.968 17.9905 165.415 17.608C164.862 17.2216 164.508 16.6648 164.352 15.9375L165.324 15.6989C165.449 16.2178 165.693 16.6098 166.057 16.875C166.424 17.1402 166.907 17.2727 167.506 17.2727C168.176 17.2727 168.712 17.1231 169.114 16.8239C169.515 16.5208 169.716 16.142 169.716 15.6875C169.716 15.3352 169.598 15.0398 169.364 14.8011C169.129 14.5587 168.773 14.3807 168.295 14.267L166.869 13.9261C166.112 13.7443 165.551 13.4564 165.188 13.0625C164.824 12.6686 164.642 12.1799 164.642 11.5966C164.642 11.1155 164.773 10.6932 165.034 10.3295C165.295 9.96212 165.655 9.67424 166.114 9.46591C166.572 9.25758 167.095 9.15341 167.682 9.15341C168.481 9.15341 169.119 9.33523 169.597 9.69886C170.078 10.0587 170.424 10.5549 170.636 11.1875ZM172.987 18V9.27273H174.004V18H172.987ZM173.504 7.77273C173.296 7.77273 173.118 7.70265 172.97 7.5625C172.822 7.41856 172.749 7.24621 172.749 7.04545C172.749 6.8447 172.822 6.67424 172.97 6.53409C173.118 6.39015 173.296 6.31818 173.504 6.31818C173.713 6.31818 173.891 6.39015 174.038 6.53409C174.186 6.67424 174.26 6.8447 174.26 7.04545C174.26 7.24621 174.186 7.41856 174.038 7.5625C173.891 7.70265 173.713 7.77273 173.504 7.77273ZM176.889 18V6.36364H177.906V10.9375H177.997C178.111 10.6761 178.274 10.4072 178.486 10.1307C178.702 9.85417 178.984 9.62311 179.332 9.4375C179.685 9.24811 180.128 9.15341 180.662 9.15341C181.378 9.15341 182.007 9.3428 182.548 9.72159C183.09 10.0966 183.512 10.6231 183.815 11.3011C184.118 11.9754 184.27 12.7614 184.27 13.6591C184.27 14.5606 184.118 15.3504 183.815 16.0284C183.516 16.7064 183.096 17.2348 182.554 17.6136C182.016 17.9924 181.391 18.1818 180.679 18.1818C180.149 18.1818 179.705 18.0871 179.349 17.8977C178.997 17.7083 178.713 17.4754 178.497 17.1989C178.281 16.9186 178.115 16.6458 177.997 16.3807H177.872V18H176.889ZM177.889 13.642C177.889 14.3466 177.993 14.9716 178.202 15.517C178.414 16.0587 178.717 16.4848 179.111 16.7955C179.509 17.1023 179.99 17.2557 180.554 17.2557C181.134 17.2557 181.624 17.0966 182.026 16.7784C182.427 16.4564 182.732 16.0227 182.94 15.4773C183.149 14.9318 183.253 14.3201 183.253 13.642C183.253 12.9716 183.149 12.3674 182.94 11.8295C182.736 11.2917 182.433 10.8655 182.031 10.5511C181.63 10.233 181.137 10.0739 180.554 10.0739C179.986 10.0739 179.503 10.2273 179.105 10.5341C178.711 10.8371 178.41 11.2576 178.202 11.7955C177.993 12.3295 177.889 12.9451 177.889 13.642ZM186.503 18V9.27273H187.52V18H186.503ZM187.02 7.77273C186.812 7.77273 186.634 7.70265 186.486 7.5625C186.338 7.41856 186.264 7.24621 186.264 7.04545C186.264 6.8447 186.338 6.67424 186.486 6.53409C186.634 6.39015 186.812 6.31818 187.02 6.31818C187.228 6.31818 187.406 6.39015 187.554 6.53409C187.702 6.67424 187.776 6.8447 187.776 7.04545C187.776 7.24621 187.702 7.41856 187.554 7.5625C187.406 7.70265 187.228 7.77273 187.02 7.77273ZM191.206 6.36364V18H190.195V6.36364H191.206ZM193.893 18V9.27273H194.911V18H193.893ZM194.411 7.77273C194.202 7.77273 194.024 7.70265 193.876 7.5625C193.729 7.41856 193.655 7.24621 193.655 7.04545C193.655 6.8447 193.729 6.67424 193.876 6.53409C194.024 6.39015 194.202 6.31818 194.411 6.31818C194.619 6.31818 194.797 6.39015 194.945 6.53409C195.092 6.67424 195.166 6.8447 195.166 7.04545C195.166 7.24621 195.092 7.41856 194.945 7.5625C194.797 7.70265 194.619 7.77273 194.411 7.77273ZM201.023 9.27273V10.1534H196.858V9.27273H201.023ZM198.159 7.18182H199.176V15.7216C199.176 16.0852 199.239 16.3712 199.364 16.5795C199.489 16.7841 199.652 16.9299 199.852 17.017C200.053 17.1004 200.267 17.142 200.494 17.142C200.627 17.142 200.741 17.1345 200.835 17.1193C200.93 17.1004 201.013 17.0814 201.085 17.0625L201.301 17.9773C201.203 18.0152 201.081 18.0492 200.938 18.0795C200.794 18.1136 200.616 18.1307 200.403 18.1307C200.032 18.1307 199.674 18.0492 199.33 17.8864C198.989 17.7235 198.708 17.4811 198.489 17.1591C198.269 16.8371 198.159 16.4375 198.159 15.9602V7.18182ZM203.331 18V9.27273H204.348V18H203.331ZM203.848 7.77273C203.64 7.77273 203.462 7.70265 203.314 7.5625C203.166 7.41856 203.092 7.24621 203.092 7.04545C203.092 6.8447 203.166 6.67424 203.314 6.53409C203.462 6.39015 203.64 6.31818 203.848 6.31818C204.056 6.31818 204.234 6.39015 204.382 6.53409C204.53 6.67424 204.604 6.8447 204.604 7.04545C204.604 7.24621 204.53 7.41856 204.382 7.5625C204.234 7.70265 204.056 7.77273 203.848 7.77273ZM210.551 18.1818C209.737 18.1818 209.032 17.9924 208.438 17.6136C207.843 17.2311 207.383 16.7027 207.057 16.0284C206.735 15.3504 206.574 14.5701 206.574 13.6875C206.574 12.8087 206.735 12.0284 207.057 11.3466C207.383 10.661 207.831 10.125 208.403 9.73864C208.979 9.34848 209.644 9.15341 210.398 9.15341C210.871 9.15341 211.328 9.24053 211.767 9.41477C212.206 9.58523 212.6 9.84848 212.949 10.2045C213.301 10.5568 213.58 11.0019 213.784 11.5398C213.989 12.0739 214.091 12.7064 214.091 13.4375V13.9375H207.273V13.0455H213.057C213.057 12.4848 212.943 11.9811 212.716 11.5341C212.492 11.0833 212.18 10.7273 211.778 10.4659C211.381 10.2045 210.92 10.0739 210.398 10.0739C209.845 10.0739 209.358 10.2216 208.938 10.517C208.517 10.8125 208.188 11.2027 207.949 11.6875C207.714 12.1723 207.595 12.7027 207.591 13.2784V13.8125C207.591 14.5057 207.71 15.1117 207.949 15.6307C208.191 16.1458 208.534 16.5455 208.977 16.8295C209.42 17.1136 209.945 17.2557 210.551 17.2557C210.964 17.2557 211.326 17.1913 211.636 17.0625C211.951 16.9337 212.214 16.7614 212.426 16.5455C212.642 16.3258 212.805 16.0852 212.915 15.8239L213.875 16.1364C213.742 16.5038 213.525 16.8428 213.222 17.1534C212.922 17.464 212.547 17.714 212.097 17.9034C211.65 18.089 211.134 18.1818 210.551 18.1818ZM222.183 11.1875L221.257 11.4489C221.166 11.1875 221.037 10.9508 220.871 10.7386C220.704 10.5265 220.486 10.358 220.217 10.233C219.952 10.108 219.623 10.0455 219.229 10.0455C218.638 10.0455 218.153 10.1856 217.774 10.4659C217.395 10.7462 217.206 11.108 217.206 11.5511C217.206 11.9261 217.335 12.2311 217.592 12.4659C217.854 12.697 218.255 12.8807 218.797 13.017L220.115 13.3409C220.846 13.5189 221.393 13.8011 221.757 14.1875C222.125 14.5739 222.308 15.0587 222.308 15.642C222.308 16.1345 222.172 16.572 221.899 16.9545C221.626 17.3371 221.246 17.6383 220.757 17.858C220.272 18.0739 219.71 18.1818 219.07 18.1818C218.217 18.1818 217.515 17.9905 216.962 17.608C216.409 17.2216 216.054 16.6648 215.899 15.9375L216.871 15.6989C216.996 16.2178 217.24 16.6098 217.604 16.875C217.971 17.1402 218.454 17.2727 219.053 17.2727C219.723 17.2727 220.259 17.1231 220.661 16.8239C221.062 16.5208 221.263 16.142 221.263 15.6875C221.263 15.3352 221.145 15.0398 220.911 14.8011C220.676 14.5587 220.32 14.3807 219.842 14.267L218.416 13.9261C217.659 13.7443 217.098 13.4564 216.734 13.0625C216.371 12.6686 216.189 12.1799 216.189 11.5966C216.189 11.1155 216.32 10.6932 216.581 10.3295C216.842 9.96212 217.202 9.67424 217.661 9.46591C218.119 9.25758 218.642 9.15341 219.229 9.15341C220.028 9.15341 220.666 9.33523 221.143 9.69886C221.625 10.0587 221.971 10.5549 222.183 11.1875Z" fill="#16151C"/>
</svg>
