<svg width="20" height="20" viewBox="0 0 20 20" fill="none" xmlns="http://www.w3.org/2000/svg">
<path d="M7.77861 4.00161C8.11954 3.94761 8.35215 3.62746 8.29815 3.28653C8.24415 2.9456 7.924 2.713 7.58307 2.767C5.53275 3.09174 3.92472 4.69977 3.59998 6.75009C3.54598 7.09102 3.77859 7.41117 4.11951 7.46517C4.46044 7.51916 4.78059 7.28656 4.83459 6.94563C5.07461 5.43018 6.26316 4.24163 7.77861 4.00161Z" fill="#2D264B"/>
<path fill-rule="evenodd" clip-rule="evenodd" d="M9.16602 0.208008C4.6787 0.208008 1.04102 3.84569 1.04102 8.33301C1.04102 12.8203 4.6787 16.458 9.16602 16.458C13.6533 16.458 17.291 12.8203 17.291 8.33301C17.291 3.84569 13.6533 0.208008 9.16602 0.208008ZM2.29102 8.33301C2.29102 4.53605 5.36906 1.45801 9.16602 1.45801C12.963 1.45801 16.041 4.53605 16.041 8.33301C16.041 12.13 12.963 15.208 9.16602 15.208C5.36906 15.208 2.29102 12.13 2.29102 8.33301Z" fill="#2D264B"/>
<path d="M16.2747 14.5578C16.0306 14.3137 15.6349 14.3137 15.3908 14.5578C15.1467 14.8019 15.1467 15.1976 15.3908 15.4417L18.724 18.775C18.9681 19.0191 19.3638 19.0191 19.6079 18.775C19.852 18.5309 19.852 18.1352 19.6079 17.8911L16.2747 14.5578Z" fill="#2D264B"/>
</svg>
