<svg width="24" height="24" viewBox="0 0 24 24" fill="none" xmlns="http://www.w3.org/2000/svg">
<path d="M12 12.25C14.0393 12.25 15.9229 12.7209 17.3223 13.5205C18.7002 14.308 19.75 15.5103 19.75 17C19.75 18.4897 18.7002 19.692 17.3223 20.4795C15.9229 21.2791 14.0393 21.75 12 21.75C9.96067 21.75 8.0771 21.2791 6.67773 20.4795C5.29976 19.692 4.25 18.4897 4.25 17C4.25 15.5103 5.29976 14.308 6.67773 13.5205C8.0771 12.7209 9.96067 12.25 12 12.25ZM12 13.75C10.1733 13.75 8.55601 14.1752 7.42188 14.8232C6.26693 15.4834 5.75 16.2808 5.75 17C5.75 17.7192 6.26693 18.5166 7.42188 19.1768C8.55601 19.8248 10.1733 20.25 12 20.25C13.8267 20.25 15.444 19.8248 16.5781 19.1768C17.7331 18.5166 18.25 17.7192 18.25 17C18.25 16.2808 17.7331 15.4834 16.5781 14.8232C15.444 14.1752 13.8267 13.75 12 13.75ZM12 2.25C14.6234 2.25 16.75 4.37665 16.75 7C16.75 9.62335 14.6234 11.75 12 11.75C9.37665 11.75 7.25 9.62335 7.25 7C7.25 4.37665 9.37665 2.25 12 2.25ZM12 3.75C10.2051 3.75 8.75 5.20507 8.75 7C8.75 8.79493 10.2051 10.25 12 10.25C13.7949 10.25 15.25 8.79493 15.25 7C15.25 5.20507 13.7949 3.75 12 3.75Z" fill="#16151C"/>
</svg>
